G75*
%MOIN*%
%OFA0B0*%
%FSLAX25Y25*%
%IPPOS*%
%LPD*%
%AMOC8*
5,1,8,0,0,1.08239X$1,22.5*
%
%ADD10OC8,0.07400*%
%ADD11R,0.03200X0.06600*%
%ADD12R,0.05906X0.07874*%
%ADD13R,0.14961X0.07874*%
%ADD14OC8,0.05200*%
%ADD15C,0.05600*%
%ADD16R,0.05600X0.05600*%
%ADD17C,0.09900*%
%ADD18C,0.03169*%
%ADD19C,0.01600*%
%ADD20C,0.03200*%
D10*
X0009698Y0038706D03*
X0019698Y0038706D03*
X0019698Y0048706D03*
X0009698Y0048706D03*
X0029698Y0048706D03*
X0029698Y0038706D03*
D11*
X0039595Y0043532D03*
X0044595Y0043532D03*
X0049595Y0043532D03*
X0054595Y0043532D03*
X0059595Y0043532D03*
X0064595Y0043532D03*
X0069595Y0043532D03*
X0074595Y0043532D03*
D12*
X0092351Y0059477D03*
X0101406Y0059477D03*
X0110461Y0059477D03*
D13*
X0101406Y0084280D03*
D14*
X0082509Y0079477D03*
X0082509Y0089477D03*
X0082509Y0068217D03*
X0082509Y0058217D03*
D15*
X0025816Y0090383D03*
X0006131Y0090383D03*
D16*
X0015973Y0090383D03*
D17*
X0049118Y0026041D02*
X0049118Y0016141D01*
X0064718Y0016141D02*
X0064718Y0026041D01*
D18*
X0064792Y0033690D03*
X0058493Y0036839D03*
X0071879Y0052981D03*
X0085658Y0052194D03*
X0092351Y0049044D03*
X0110855Y0045107D03*
X0096682Y0073454D03*
X0062430Y0101013D03*
X0066367Y0112036D03*
X0038808Y0084477D03*
X0046682Y0073847D03*
X0046682Y0068729D03*
X0041170Y0068729D03*
X0032115Y0056918D03*
X0024635Y0056918D03*
X0014792Y0032902D03*
X0024635Y0029753D03*
X0039989Y0025422D03*
X0039989Y0014005D03*
X0057706Y0075816D03*
X0057706Y0083690D03*
X0034083Y0095894D03*
X0023060Y0084477D03*
X0015580Y0098257D03*
X0015580Y0111643D03*
D19*
X0021113Y0026839D02*
X0024602Y0024304D01*
X0024602Y0024304D01*
X0024602Y0024304D01*
X0027136Y0020816D01*
X0027136Y0020816D01*
X0028469Y0016715D01*
X0028469Y0003565D01*
X0112297Y0003565D01*
X0112713Y0003606D01*
X0113483Y0003925D01*
X0114072Y0004514D01*
X0114391Y0005284D01*
X0114432Y0005700D01*
X0114432Y0054049D01*
X0114109Y0053863D01*
X0113651Y0053740D01*
X0111138Y0053740D01*
X0111138Y0058801D01*
X0111138Y0060154D01*
X0109785Y0060154D01*
X0109785Y0065214D01*
X0107272Y0065214D01*
X0106814Y0065091D01*
X0106403Y0064855D01*
X0106068Y0064519D01*
X0105831Y0064109D01*
X0105759Y0063839D01*
X0105759Y0063994D01*
X0104939Y0064814D01*
X0097874Y0064814D01*
X0097054Y0063994D01*
X0097054Y0054960D01*
X0097874Y0054140D01*
X0104939Y0054140D01*
X0105759Y0054960D01*
X0105759Y0055115D01*
X0105831Y0054845D01*
X0106068Y0054435D01*
X0106403Y0054100D01*
X0106814Y0053863D01*
X0107272Y0053740D01*
X0109785Y0053740D01*
X0109785Y0058801D01*
X0111138Y0058801D01*
X0114432Y0058801D01*
X0114432Y0060154D01*
X0111138Y0060154D01*
X0111138Y0065214D01*
X0113651Y0065214D01*
X0114109Y0065091D01*
X0114432Y0064905D01*
X0114432Y0089528D01*
X0109556Y0089528D01*
X0110287Y0088797D01*
X0110287Y0079763D01*
X0109467Y0078943D01*
X0103606Y0078943D01*
X0103606Y0073330D01*
X0102819Y0072542D01*
X0102819Y0072542D01*
X0101530Y0071254D01*
X0098702Y0071254D01*
X0098372Y0070924D01*
X0097275Y0070469D01*
X0096088Y0070469D01*
X0094991Y0070924D01*
X0094152Y0071763D01*
X0093698Y0072860D01*
X0093698Y0074047D01*
X0094152Y0075144D01*
X0094991Y0075983D01*
X0096088Y0076438D01*
X0097275Y0076438D01*
X0098372Y0075983D01*
X0098702Y0075654D01*
X0099206Y0075654D01*
X0099206Y0078943D01*
X0093346Y0078943D01*
X0092526Y0079763D01*
X0092526Y0082277D01*
X0085365Y0082277D01*
X0086509Y0081134D01*
X0086509Y0077820D01*
X0084166Y0075477D01*
X0080852Y0075477D01*
X0079130Y0077199D01*
X0078803Y0076873D01*
X0078803Y0070734D01*
X0080686Y0072617D01*
X0082509Y0072617D01*
X0082509Y0068217D01*
X0082509Y0068217D01*
X0086909Y0068217D01*
X0086909Y0066395D01*
X0084331Y0063817D01*
X0082509Y0063817D01*
X0082509Y0068217D01*
X0082509Y0068217D01*
X0086909Y0068217D01*
X0086909Y0070040D01*
X0084331Y0072617D01*
X0082509Y0072617D01*
X0082509Y0068217D01*
X0082509Y0063817D01*
X0080686Y0063817D01*
X0078803Y0065700D01*
X0078803Y0060585D01*
X0078971Y0060417D01*
X0079052Y0060417D01*
X0080852Y0062217D01*
X0084166Y0062217D01*
X0086509Y0059874D01*
X0086509Y0056560D01*
X0085126Y0055178D01*
X0086252Y0055178D01*
X0087349Y0054724D01*
X0088188Y0053884D01*
X0088643Y0052787D01*
X0088643Y0051600D01*
X0088188Y0050503D01*
X0087858Y0050173D01*
X0087858Y0046088D01*
X0088290Y0046520D01*
X0089617Y0047846D01*
X0089367Y0048450D01*
X0089367Y0049638D01*
X0089821Y0050735D01*
X0090151Y0051064D01*
X0090151Y0054140D01*
X0088819Y0054140D01*
X0087998Y0054960D01*
X0087998Y0063994D01*
X0088819Y0064814D01*
X0095884Y0064814D01*
X0096704Y0063994D01*
X0096704Y0054960D01*
X0095884Y0054140D01*
X0094551Y0054140D01*
X0094551Y0051064D01*
X0094881Y0050735D01*
X0095335Y0049638D01*
X0095335Y0048450D01*
X0094881Y0047354D01*
X0094551Y0047024D01*
X0094551Y0046558D01*
X0091402Y0043408D01*
X0091402Y0024117D01*
X0090113Y0022828D01*
X0088932Y0021647D01*
X0081451Y0021647D01*
X0081165Y0021361D01*
X0081165Y0006794D01*
X0079591Y0005219D01*
X0078302Y0003931D01*
X0040652Y0003931D01*
X0039078Y0005506D01*
X0037789Y0006794D01*
X0037789Y0011984D01*
X0037459Y0012314D01*
X0037005Y0013411D01*
X0037005Y0013878D01*
X0034639Y0016243D01*
X0034639Y0020466D01*
X0028841Y0020466D01*
X0028448Y0020860D01*
X0027159Y0022149D01*
X0027159Y0034032D01*
X0024698Y0036493D01*
X0021898Y0033693D01*
X0021898Y0032960D01*
X0019640Y0030702D01*
X0016813Y0030702D01*
X0016483Y0030372D01*
X0015386Y0029918D01*
X0014199Y0029918D01*
X0013102Y0030372D01*
X0012262Y0031212D01*
X0011808Y0032309D01*
X0011808Y0033206D01*
X0009898Y0033206D01*
X0009898Y0038505D01*
X0009498Y0038505D01*
X0009498Y0033205D01*
X0007419Y0033206D01*
X0004198Y0036427D01*
X0004198Y0038505D01*
X0009498Y0038505D01*
X0009498Y0038906D01*
X0004198Y0038906D01*
X0004198Y0040984D01*
X0007202Y0043988D01*
X0004598Y0046593D01*
X0004598Y0050818D01*
X0007498Y0053718D01*
X0007498Y0073995D01*
X0008786Y0075283D01*
X0012198Y0078696D01*
X0013487Y0079984D01*
X0056255Y0079984D01*
X0057439Y0078800D01*
X0058299Y0078800D01*
X0059396Y0078346D01*
X0060235Y0077506D01*
X0060690Y0076409D01*
X0060690Y0075222D01*
X0060235Y0074125D01*
X0059396Y0073286D01*
X0058299Y0072831D01*
X0057112Y0072831D01*
X0056362Y0073142D01*
X0056362Y0055073D01*
X0061795Y0049640D01*
X0061795Y0048212D01*
X0062095Y0047912D01*
X0062415Y0048232D01*
X0066775Y0048232D01*
X0066812Y0048195D01*
X0066890Y0048273D01*
X0067300Y0048510D01*
X0067758Y0048632D01*
X0069595Y0048632D01*
X0069595Y0043532D01*
X0069595Y0043532D01*
X0069595Y0038432D01*
X0067758Y0038432D01*
X0067300Y0038555D01*
X0066890Y0038792D01*
X0066812Y0038870D01*
X0066775Y0038832D01*
X0066598Y0038832D01*
X0066598Y0038684D01*
X0065310Y0037395D01*
X0062554Y0034639D01*
X0060513Y0034639D01*
X0060183Y0034309D01*
X0059087Y0033855D01*
X0057899Y0033855D01*
X0057893Y0033858D01*
X0059118Y0032633D01*
X0059118Y0029831D01*
X0059632Y0030501D01*
X0060258Y0031127D01*
X0060960Y0031666D01*
X0061726Y0032108D01*
X0062544Y0032447D01*
X0063398Y0032676D01*
X0063918Y0032744D01*
X0063918Y0021891D01*
X0065518Y0021891D01*
X0071468Y0021891D01*
X0071468Y0026484D01*
X0071353Y0027361D01*
X0071124Y0028216D01*
X0070785Y0029033D01*
X0070343Y0029799D01*
X0069804Y0030501D01*
X0069178Y0031127D01*
X0068476Y0031666D01*
X0067710Y0032108D01*
X0066892Y0032447D01*
X0066038Y0032676D01*
X0065518Y0032744D01*
X0065518Y0021891D01*
X0065518Y0020291D01*
X0071468Y0020291D01*
X0071468Y0015699D01*
X0071353Y0014822D01*
X0071124Y0013967D01*
X0070785Y0013149D01*
X0070343Y0012383D01*
X0069804Y0011681D01*
X0069209Y0011087D01*
X0072542Y0011087D01*
X0073222Y0011766D01*
X0073222Y0025546D01*
X0074511Y0026835D01*
X0077267Y0029591D01*
X0083172Y0029591D01*
X0083458Y0029877D01*
X0083458Y0050173D01*
X0083128Y0050503D01*
X0082674Y0051600D01*
X0082674Y0052787D01*
X0083128Y0053884D01*
X0083462Y0054217D01*
X0080852Y0054217D01*
X0079052Y0056017D01*
X0078647Y0056017D01*
X0079197Y0055467D01*
X0079197Y0045023D01*
X0077595Y0043421D01*
X0077595Y0039652D01*
X0076775Y0038832D01*
X0072415Y0038832D01*
X0072378Y0038870D01*
X0072300Y0038792D01*
X0071890Y0038555D01*
X0071432Y0038432D01*
X0069595Y0038432D01*
X0069595Y0043532D01*
X0069595Y0034950D01*
X0068335Y0033690D01*
X0064792Y0033690D01*
X0064718Y0033616D01*
X0063918Y0031370D02*
X0065518Y0031370D01*
X0065518Y0029771D02*
X0063918Y0029771D01*
X0063918Y0028173D02*
X0065518Y0028173D01*
X0065518Y0026574D02*
X0063918Y0026574D01*
X0063918Y0024976D02*
X0065518Y0024976D01*
X0065518Y0023377D02*
X0063918Y0023377D01*
X0065518Y0021779D02*
X0073222Y0021779D01*
X0073222Y0023377D02*
X0071468Y0023377D01*
X0071468Y0024976D02*
X0073222Y0024976D01*
X0074251Y0026574D02*
X0071456Y0026574D01*
X0071135Y0028173D02*
X0075849Y0028173D01*
X0078178Y0027391D02*
X0075422Y0024635D01*
X0075422Y0010855D01*
X0073454Y0008887D01*
X0058887Y0008887D01*
X0056918Y0010855D01*
X0056918Y0031721D01*
X0051800Y0036839D01*
X0041170Y0036839D01*
X0039595Y0038414D01*
X0039595Y0043532D01*
X0036595Y0044158D02*
X0032363Y0044158D01*
X0031910Y0043706D02*
X0034798Y0046593D01*
X0034798Y0049206D01*
X0040652Y0049206D01*
X0041627Y0048232D01*
X0037415Y0048232D01*
X0036595Y0047412D01*
X0036595Y0039652D01*
X0037395Y0038852D01*
X0037395Y0037503D01*
X0038684Y0036214D01*
X0040259Y0034639D01*
X0050889Y0034639D01*
X0054718Y0030810D01*
X0054718Y0029115D01*
X0054501Y0029638D01*
X0052715Y0031425D01*
X0050381Y0032391D01*
X0047855Y0032391D01*
X0045521Y0031425D01*
X0043735Y0029638D01*
X0043231Y0028422D01*
X0039392Y0028422D01*
X0038290Y0027965D01*
X0037446Y0027121D01*
X0036989Y0026019D01*
X0036989Y0024840D01*
X0036963Y0024866D01*
X0031559Y0024866D01*
X0031559Y0033606D01*
X0031810Y0033606D01*
X0034798Y0036593D01*
X0034798Y0040818D01*
X0031910Y0043706D01*
X0033056Y0042560D02*
X0036595Y0042560D01*
X0036595Y0040961D02*
X0034655Y0040961D01*
X0034798Y0039363D02*
X0036885Y0039363D01*
X0037395Y0037764D02*
X0034798Y0037764D01*
X0034370Y0036165D02*
X0038733Y0036165D01*
X0042032Y0039089D02*
X0042095Y0039152D01*
X0042208Y0039039D01*
X0042081Y0039039D01*
X0042032Y0039089D01*
X0044595Y0043532D02*
X0044595Y0048375D01*
X0041564Y0051406D01*
X0032398Y0051406D01*
X0029698Y0048706D01*
X0024635Y0053769D01*
X0024635Y0056918D01*
X0021898Y0055728D02*
X0022105Y0055228D01*
X0022435Y0054898D01*
X0022435Y0053181D01*
X0021898Y0053718D01*
X0021898Y0055728D01*
X0021898Y0055348D02*
X0022055Y0055348D01*
X0021898Y0053749D02*
X0022435Y0053749D01*
X0021898Y0058109D02*
X0021898Y0059731D01*
X0022790Y0060624D01*
X0029629Y0060624D01*
X0029915Y0060338D01*
X0029915Y0058938D01*
X0029585Y0058609D01*
X0029131Y0057512D01*
X0029131Y0056324D01*
X0029585Y0055228D01*
X0030425Y0054388D01*
X0031521Y0053934D01*
X0032709Y0053934D01*
X0033805Y0054388D01*
X0034645Y0055228D01*
X0035099Y0056324D01*
X0035099Y0057512D01*
X0034645Y0058609D01*
X0034315Y0058938D01*
X0034315Y0062160D01*
X0033026Y0063449D01*
X0031451Y0065024D01*
X0020967Y0065024D01*
X0019679Y0063735D01*
X0017498Y0061554D01*
X0017498Y0053718D01*
X0014698Y0050918D01*
X0011898Y0053718D01*
X0011898Y0072172D01*
X0015310Y0075584D01*
X0044199Y0075584D01*
X0044152Y0075538D01*
X0043698Y0074441D01*
X0043698Y0073254D01*
X0044152Y0072157D01*
X0044991Y0071317D01*
X0045062Y0071288D01*
X0044991Y0071259D01*
X0044152Y0070420D01*
X0043926Y0069874D01*
X0043700Y0070420D01*
X0042861Y0071259D01*
X0041764Y0071713D01*
X0040576Y0071713D01*
X0039480Y0071259D01*
X0038640Y0070420D01*
X0038186Y0069323D01*
X0038186Y0068136D01*
X0011898Y0068136D01*
X0011898Y0066537D02*
X0039142Y0066537D01*
X0039480Y0066199D02*
X0039757Y0066084D01*
X0039757Y0063881D01*
X0041046Y0062592D01*
X0041440Y0062198D01*
X0045269Y0062198D01*
X0045269Y0050812D01*
X0043764Y0052318D01*
X0042475Y0053606D01*
X0032009Y0053606D01*
X0031810Y0053805D01*
X0027709Y0053805D01*
X0026835Y0054680D01*
X0026835Y0054898D01*
X0027165Y0055228D01*
X0027619Y0056324D01*
X0027619Y0057512D01*
X0027165Y0058609D01*
X0026325Y0059448D01*
X0025228Y0059902D01*
X0024041Y0059902D01*
X0022944Y0059448D01*
X0022105Y0058609D01*
X0021898Y0058109D01*
X0021898Y0058545D02*
X0022078Y0058545D01*
X0022310Y0060143D02*
X0029915Y0060143D01*
X0029559Y0058545D02*
X0027191Y0058545D01*
X0027619Y0056946D02*
X0029131Y0056946D01*
X0029535Y0055348D02*
X0027214Y0055348D01*
X0031867Y0053749D02*
X0045269Y0053749D01*
X0045269Y0052151D02*
X0043931Y0052151D01*
X0045269Y0055348D02*
X0034695Y0055348D01*
X0035099Y0056946D02*
X0045269Y0056946D01*
X0045269Y0058545D02*
X0034671Y0058545D01*
X0034315Y0060143D02*
X0045269Y0060143D01*
X0045269Y0061742D02*
X0034315Y0061742D01*
X0033135Y0063340D02*
X0040298Y0063340D01*
X0041957Y0064792D02*
X0041957Y0067942D01*
X0041170Y0068729D01*
X0038356Y0069734D02*
X0011898Y0069734D01*
X0011898Y0071333D02*
X0039657Y0071333D01*
X0042683Y0071333D02*
X0044976Y0071333D01*
X0043831Y0072931D02*
X0012657Y0072931D01*
X0014255Y0074530D02*
X0043734Y0074530D01*
X0046682Y0073847D02*
X0052981Y0073847D01*
X0054162Y0072666D01*
X0054162Y0054162D01*
X0059595Y0048729D01*
X0059595Y0043532D01*
X0064398Y0043335D02*
X0064398Y0039595D01*
X0061643Y0036839D01*
X0058493Y0036839D01*
X0056265Y0038832D02*
X0052918Y0038832D01*
X0054000Y0037751D01*
X0055511Y0036239D01*
X0055509Y0036246D01*
X0055509Y0037433D01*
X0055963Y0038530D01*
X0056265Y0038832D01*
X0055646Y0037764D02*
X0053987Y0037764D01*
X0052208Y0039039D02*
X0051982Y0039039D01*
X0052095Y0039152D01*
X0052208Y0039039D01*
X0054595Y0043532D02*
X0054595Y0049005D01*
X0050619Y0052981D01*
X0050619Y0067942D01*
X0049831Y0068729D01*
X0046682Y0068729D01*
X0044592Y0066598D02*
X0044157Y0066598D01*
X0044157Y0067033D01*
X0044592Y0066598D01*
X0046682Y0064398D02*
X0042351Y0064398D01*
X0041957Y0064792D01*
X0039757Y0064939D02*
X0031536Y0064939D01*
X0030540Y0062824D02*
X0032115Y0061249D01*
X0032115Y0056918D01*
X0030540Y0062824D02*
X0021879Y0062824D01*
X0019698Y0060643D01*
X0019698Y0048706D01*
X0015930Y0052151D02*
X0013465Y0052151D01*
X0011898Y0053749D02*
X0017498Y0053749D01*
X0017498Y0055348D02*
X0011898Y0055348D01*
X0011898Y0056946D02*
X0017498Y0056946D01*
X0017498Y0058545D02*
X0011898Y0058545D01*
X0011898Y0060143D02*
X0017498Y0060143D01*
X0017686Y0061742D02*
X0011898Y0061742D01*
X0011898Y0063340D02*
X0019284Y0063340D01*
X0020883Y0064939D02*
X0011898Y0064939D01*
X0007498Y0064939D02*
X0003862Y0064939D01*
X0003862Y0066537D02*
X0007498Y0066537D01*
X0007498Y0068136D02*
X0003862Y0068136D01*
X0003862Y0069734D02*
X0007498Y0069734D01*
X0007498Y0071333D02*
X0003862Y0071333D01*
X0003862Y0072931D02*
X0007498Y0072931D01*
X0008033Y0074530D02*
X0003862Y0074530D01*
X0003862Y0076128D02*
X0009631Y0076128D01*
X0011230Y0077727D02*
X0003862Y0077727D01*
X0003862Y0079325D02*
X0012828Y0079325D01*
X0014398Y0077784D02*
X0055343Y0077784D01*
X0057312Y0075816D01*
X0057706Y0075816D01*
X0060015Y0077727D02*
X0067710Y0077727D01*
X0067710Y0076128D02*
X0060690Y0076128D01*
X0060403Y0074530D02*
X0067710Y0074530D01*
X0067710Y0072931D02*
X0058540Y0072931D01*
X0056871Y0072931D02*
X0056362Y0072931D01*
X0056362Y0071333D02*
X0067710Y0071333D01*
X0067710Y0069734D02*
X0056362Y0069734D01*
X0056362Y0068136D02*
X0067710Y0068136D01*
X0067710Y0066537D02*
X0056362Y0066537D01*
X0056362Y0064939D02*
X0067710Y0064939D01*
X0067710Y0063340D02*
X0056362Y0063340D01*
X0056362Y0061742D02*
X0067710Y0061742D01*
X0067710Y0060143D02*
X0056362Y0060143D01*
X0056362Y0058545D02*
X0067710Y0058545D01*
X0067710Y0056946D02*
X0056362Y0056946D01*
X0056362Y0055348D02*
X0067710Y0055348D01*
X0067710Y0054432D02*
X0068894Y0053248D01*
X0068894Y0052387D01*
X0069349Y0051291D01*
X0070188Y0050451D01*
X0071285Y0049997D01*
X0072472Y0049997D01*
X0073569Y0050451D01*
X0074409Y0051291D01*
X0074797Y0052228D01*
X0074797Y0048232D01*
X0072415Y0048232D01*
X0072378Y0048195D01*
X0072300Y0048273D01*
X0071890Y0048510D01*
X0071432Y0048632D01*
X0069595Y0048632D01*
X0069595Y0043532D01*
X0069595Y0043532D01*
X0069595Y0044158D02*
X0069595Y0044158D01*
X0069595Y0042560D02*
X0069595Y0042560D01*
X0069595Y0040961D02*
X0069595Y0040961D01*
X0069595Y0039363D02*
X0069595Y0039363D01*
X0065678Y0037764D02*
X0083458Y0037764D01*
X0083458Y0039363D02*
X0077305Y0039363D01*
X0077595Y0040961D02*
X0083458Y0040961D01*
X0083458Y0042560D02*
X0077595Y0042560D01*
X0078332Y0044158D02*
X0083458Y0044158D01*
X0083458Y0045757D02*
X0079197Y0045757D01*
X0079197Y0047355D02*
X0083458Y0047355D01*
X0083458Y0048954D02*
X0079197Y0048954D01*
X0079197Y0050552D02*
X0083108Y0050552D01*
X0082674Y0052151D02*
X0079197Y0052151D01*
X0079197Y0053749D02*
X0083072Y0053749D01*
X0085296Y0055348D02*
X0087998Y0055348D01*
X0088244Y0053749D02*
X0090151Y0053749D01*
X0090151Y0052151D02*
X0088643Y0052151D01*
X0088208Y0050552D02*
X0089746Y0050552D01*
X0089367Y0048954D02*
X0087858Y0048954D01*
X0087858Y0047355D02*
X0089126Y0047355D01*
X0089202Y0044320D02*
X0089202Y0025028D01*
X0088020Y0023847D01*
X0080540Y0023847D01*
X0078965Y0022272D01*
X0078965Y0007706D01*
X0077391Y0006131D01*
X0041564Y0006131D01*
X0039989Y0007706D01*
X0039989Y0014005D01*
X0036839Y0017154D01*
X0036839Y0021879D01*
X0036052Y0022666D01*
X0029753Y0022666D01*
X0029359Y0023060D01*
X0029359Y0038367D01*
X0029698Y0038706D01*
X0032772Y0034567D02*
X0050961Y0034567D01*
X0052560Y0032968D02*
X0031559Y0032968D01*
X0031559Y0031370D02*
X0045466Y0031370D01*
X0043868Y0029771D02*
X0031559Y0029771D01*
X0031559Y0028173D02*
X0038791Y0028173D01*
X0037219Y0026574D02*
X0031559Y0026574D01*
X0031559Y0024976D02*
X0036989Y0024976D01*
X0039039Y0022568D02*
X0039392Y0022422D01*
X0042768Y0022422D01*
X0042768Y0015093D01*
X0042519Y0015695D01*
X0041679Y0016535D01*
X0040583Y0016989D01*
X0040116Y0016989D01*
X0039039Y0018066D01*
X0039039Y0022568D01*
X0039039Y0021779D02*
X0042768Y0021779D01*
X0042768Y0020180D02*
X0039039Y0020180D01*
X0039039Y0018582D02*
X0042768Y0018582D01*
X0042768Y0016983D02*
X0040596Y0016983D01*
X0042647Y0015385D02*
X0042768Y0015385D01*
X0042973Y0014383D02*
X0043735Y0012544D01*
X0045521Y0010758D01*
X0047855Y0009791D01*
X0050381Y0009791D01*
X0052715Y0010758D01*
X0054501Y0012544D01*
X0054718Y0013068D01*
X0054718Y0009944D01*
X0056331Y0008331D01*
X0042475Y0008331D01*
X0042189Y0008617D01*
X0042189Y0011984D01*
X0042519Y0012314D01*
X0042973Y0013411D01*
X0042973Y0014383D01*
X0042973Y0013786D02*
X0043220Y0013786D01*
X0042392Y0012188D02*
X0044091Y0012188D01*
X0045929Y0010589D02*
X0042189Y0010589D01*
X0042189Y0008991D02*
X0055671Y0008991D01*
X0054718Y0010589D02*
X0052308Y0010589D01*
X0054145Y0012188D02*
X0054718Y0012188D01*
X0059118Y0012188D02*
X0059244Y0012188D01*
X0059118Y0012351D02*
X0059632Y0011681D01*
X0060227Y0011087D01*
X0059798Y0011087D01*
X0059118Y0011766D01*
X0059118Y0012351D01*
X0070193Y0012188D02*
X0073222Y0012188D01*
X0073222Y0013786D02*
X0071049Y0013786D01*
X0071427Y0015385D02*
X0073222Y0015385D01*
X0073222Y0016983D02*
X0071468Y0016983D01*
X0071468Y0018582D02*
X0073222Y0018582D01*
X0073222Y0020180D02*
X0071468Y0020180D01*
X0078178Y0027391D02*
X0084083Y0027391D01*
X0085658Y0028965D01*
X0085658Y0052194D01*
X0086509Y0056946D02*
X0087998Y0056946D01*
X0087998Y0058545D02*
X0086509Y0058545D01*
X0086240Y0060143D02*
X0087998Y0060143D01*
X0087998Y0061742D02*
X0084641Y0061742D01*
X0085453Y0064939D02*
X0106549Y0064939D01*
X0109785Y0064939D02*
X0111138Y0064939D01*
X0111138Y0063340D02*
X0109785Y0063340D01*
X0109785Y0061742D02*
X0111138Y0061742D01*
X0111138Y0060143D02*
X0114432Y0060143D01*
X0111249Y0059477D02*
X0110461Y0059477D01*
X0110855Y0058296D01*
X0110855Y0045107D01*
X0114432Y0045757D02*
X0093750Y0045757D01*
X0094882Y0047355D02*
X0114432Y0047355D01*
X0114432Y0048954D02*
X0095335Y0048954D01*
X0094957Y0050552D02*
X0114432Y0050552D01*
X0114432Y0052151D02*
X0094551Y0052151D01*
X0094551Y0053749D02*
X0107238Y0053749D01*
X0109785Y0053749D02*
X0111138Y0053749D01*
X0111138Y0055348D02*
X0109785Y0055348D01*
X0109785Y0056946D02*
X0111138Y0056946D01*
X0111138Y0058545D02*
X0109785Y0058545D01*
X0111249Y0059477D02*
X0111249Y0067548D01*
X0110580Y0068217D01*
X0082509Y0068217D01*
X0082509Y0068217D01*
X0082509Y0068136D02*
X0082509Y0068136D01*
X0082509Y0066537D02*
X0082509Y0066537D01*
X0082509Y0064939D02*
X0082509Y0064939D01*
X0079565Y0064939D02*
X0078803Y0064939D01*
X0078803Y0063340D02*
X0087998Y0063340D01*
X0086909Y0066537D02*
X0114432Y0066537D01*
X0114432Y0064939D02*
X0114374Y0064939D01*
X0114432Y0068136D02*
X0086909Y0068136D01*
X0086909Y0069734D02*
X0114432Y0069734D01*
X0114432Y0071333D02*
X0101609Y0071333D01*
X0103208Y0072931D02*
X0114432Y0072931D01*
X0114432Y0074530D02*
X0103606Y0074530D01*
X0103606Y0076128D02*
X0114432Y0076128D01*
X0114432Y0077727D02*
X0103606Y0077727D01*
X0101406Y0074241D02*
X0100619Y0073454D01*
X0096682Y0073454D01*
X0094582Y0071333D02*
X0085616Y0071333D01*
X0082509Y0071333D02*
X0082509Y0071333D01*
X0082509Y0069734D02*
X0082509Y0069734D01*
X0079402Y0071333D02*
X0078803Y0071333D01*
X0078803Y0072931D02*
X0093698Y0072931D01*
X0093898Y0074530D02*
X0078803Y0074530D01*
X0078803Y0076128D02*
X0080201Y0076128D01*
X0078296Y0079477D02*
X0076603Y0077784D01*
X0076603Y0059674D01*
X0078060Y0058217D01*
X0082509Y0058217D01*
X0079722Y0055348D02*
X0079197Y0055348D01*
X0076997Y0054556D02*
X0076997Y0045934D01*
X0074595Y0043532D01*
X0074797Y0048954D02*
X0061795Y0048954D01*
X0060884Y0050552D02*
X0070087Y0050552D01*
X0068993Y0052151D02*
X0059285Y0052151D01*
X0057687Y0053749D02*
X0068393Y0053749D01*
X0067710Y0054432D02*
X0067710Y0087109D01*
X0067030Y0087789D01*
X0041294Y0087789D01*
X0041008Y0087503D01*
X0041008Y0086498D01*
X0041338Y0086168D01*
X0041792Y0085071D01*
X0041792Y0083884D01*
X0041338Y0082787D01*
X0040498Y0081947D01*
X0039401Y0081493D01*
X0038214Y0081493D01*
X0037117Y0081947D01*
X0036278Y0082787D01*
X0035824Y0083884D01*
X0035824Y0085071D01*
X0036278Y0086168D01*
X0036608Y0086498D01*
X0036608Y0089325D01*
X0037897Y0090614D01*
X0039471Y0092189D01*
X0068853Y0092189D01*
X0070142Y0090900D01*
X0072110Y0088932D01*
X0072110Y0082308D01*
X0075191Y0085388D01*
X0076479Y0086677D01*
X0079652Y0086677D01*
X0079052Y0087277D01*
X0076991Y0087277D01*
X0074117Y0090151D01*
X0072828Y0091440D01*
X0072828Y0103645D01*
X0072542Y0103931D01*
X0067030Y0103931D01*
X0065456Y0105506D01*
X0064167Y0106794D01*
X0064167Y0110016D01*
X0063837Y0110346D01*
X0063383Y0111443D01*
X0063383Y0112630D01*
X0063837Y0113727D01*
X0064245Y0114135D01*
X0017308Y0114135D01*
X0018109Y0113333D01*
X0018564Y0112236D01*
X0018564Y0111049D01*
X0018109Y0109952D01*
X0017780Y0109622D01*
X0017780Y0107703D01*
X0018436Y0109288D01*
X0020493Y0111345D01*
X0023180Y0112458D01*
X0026089Y0112458D01*
X0028776Y0111345D01*
X0030833Y0109288D01*
X0031946Y0106601D01*
X0031946Y0103692D01*
X0030833Y0101005D01*
X0028776Y0098948D01*
X0026089Y0097835D01*
X0023180Y0097835D01*
X0020493Y0098948D01*
X0018436Y0101005D01*
X0017586Y0103057D01*
X0016491Y0101962D01*
X0014916Y0100387D01*
X0009798Y0100387D01*
X0008331Y0098920D01*
X0008331Y0094017D01*
X0008510Y0093943D01*
X0009691Y0092762D01*
X0010331Y0091218D01*
X0010331Y0089547D01*
X0009691Y0088004D01*
X0008510Y0086822D01*
X0006966Y0086183D01*
X0005295Y0086183D01*
X0003862Y0086776D01*
X0003862Y0028172D01*
X0017012Y0028172D01*
X0021113Y0026839D01*
X0021113Y0026839D01*
X0021477Y0026574D02*
X0027159Y0026574D01*
X0027159Y0024976D02*
X0023677Y0024976D01*
X0025275Y0023377D02*
X0027159Y0023377D01*
X0027529Y0021779D02*
X0026436Y0021779D01*
X0027343Y0020180D02*
X0034639Y0020180D01*
X0034639Y0018582D02*
X0027862Y0018582D01*
X0028381Y0016983D02*
X0034639Y0016983D01*
X0035498Y0015385D02*
X0028469Y0015385D01*
X0028469Y0013786D02*
X0037005Y0013786D01*
X0037586Y0012188D02*
X0028469Y0012188D01*
X0028469Y0010589D02*
X0037789Y0010589D01*
X0037789Y0008991D02*
X0028469Y0008991D01*
X0028469Y0007392D02*
X0037789Y0007392D01*
X0038789Y0005794D02*
X0028469Y0005794D01*
X0028469Y0004195D02*
X0040388Y0004195D01*
X0027159Y0028173D02*
X0003862Y0028173D01*
X0003862Y0029771D02*
X0027159Y0029771D01*
X0027159Y0031370D02*
X0020308Y0031370D01*
X0021898Y0032968D02*
X0027159Y0032968D01*
X0026624Y0034567D02*
X0022772Y0034567D01*
X0024370Y0036165D02*
X0025025Y0036165D01*
X0024698Y0040918D02*
X0021910Y0043706D01*
X0024698Y0046493D01*
X0027485Y0043706D01*
X0024698Y0040918D01*
X0024655Y0040961D02*
X0024741Y0040961D01*
X0026339Y0042560D02*
X0023056Y0042560D01*
X0022363Y0044158D02*
X0027033Y0044158D01*
X0025434Y0045757D02*
X0023961Y0045757D01*
X0017485Y0043706D02*
X0014980Y0041201D01*
X0012193Y0043988D01*
X0014698Y0046493D01*
X0017485Y0043706D01*
X0017033Y0044158D02*
X0012363Y0044158D01*
X0013622Y0042560D02*
X0016339Y0042560D01*
X0015434Y0045757D02*
X0013961Y0045757D01*
X0009698Y0048706D02*
X0009698Y0073083D01*
X0014398Y0077784D01*
X0017154Y0082509D02*
X0019123Y0080540D01*
X0056524Y0080540D01*
X0057706Y0081721D01*
X0057706Y0083690D01*
X0056914Y0079325D02*
X0067710Y0079325D01*
X0067710Y0080924D02*
X0003862Y0080924D01*
X0003862Y0082522D02*
X0020794Y0082522D01*
X0020530Y0082787D02*
X0021369Y0081947D01*
X0022466Y0081493D01*
X0023653Y0081493D01*
X0024750Y0081947D01*
X0025590Y0082787D01*
X0026044Y0083884D01*
X0026044Y0084350D01*
X0028016Y0086322D01*
X0028016Y0086748D01*
X0028195Y0086822D01*
X0029376Y0088004D01*
X0030016Y0089547D01*
X0030016Y0091218D01*
X0029376Y0092762D01*
X0028195Y0093943D01*
X0026651Y0094583D01*
X0024980Y0094583D01*
X0023437Y0093943D01*
X0022255Y0092762D01*
X0021616Y0091218D01*
X0021616Y0089547D01*
X0022255Y0088004D01*
X0022797Y0087461D01*
X0022466Y0087461D01*
X0021369Y0087007D01*
X0020530Y0086168D01*
X0020076Y0085071D01*
X0020076Y0083884D01*
X0020530Y0082787D01*
X0020076Y0084121D02*
X0003862Y0084121D01*
X0003862Y0085719D02*
X0020344Y0085719D01*
X0019878Y0086142D02*
X0020214Y0086477D01*
X0020451Y0086888D01*
X0020573Y0087346D01*
X0020573Y0090383D01*
X0020573Y0093420D01*
X0020451Y0093877D01*
X0020214Y0094288D01*
X0019878Y0094623D01*
X0019468Y0094860D01*
X0019010Y0094983D01*
X0015973Y0094983D01*
X0012936Y0094983D01*
X0012478Y0094860D01*
X0012068Y0094623D01*
X0011733Y0094288D01*
X0011496Y0093877D01*
X0011373Y0093420D01*
X0011373Y0090383D01*
X0015973Y0090383D01*
X0015973Y0094983D01*
X0015973Y0090383D01*
X0015973Y0090383D01*
X0015973Y0090383D01*
X0017154Y0089202D01*
X0017154Y0082509D01*
X0015973Y0085783D02*
X0019010Y0085783D01*
X0019468Y0085905D01*
X0019878Y0086142D01*
X0020566Y0087318D02*
X0022120Y0087318D01*
X0021877Y0088916D02*
X0020573Y0088916D01*
X0020573Y0090383D02*
X0015973Y0090383D01*
X0015580Y0090776D01*
X0015580Y0098257D01*
X0016233Y0101704D02*
X0018146Y0101704D01*
X0019335Y0100106D02*
X0009516Y0100106D01*
X0008331Y0098507D02*
X0021556Y0098507D01*
X0020495Y0093712D02*
X0023205Y0093712D01*
X0021987Y0092113D02*
X0020573Y0092113D01*
X0020573Y0090515D02*
X0021616Y0090515D01*
X0020573Y0090383D02*
X0015973Y0090383D01*
X0011373Y0090383D01*
X0011373Y0087346D01*
X0011496Y0086888D01*
X0011733Y0086477D01*
X0012068Y0086142D01*
X0012478Y0085905D01*
X0012936Y0085783D01*
X0015973Y0085783D01*
X0015973Y0090383D01*
X0015973Y0090383D01*
X0015973Y0090383D01*
X0015973Y0085783D01*
X0015973Y0087318D02*
X0015973Y0087318D01*
X0015973Y0088916D02*
X0015973Y0088916D01*
X0015973Y0090515D02*
X0015973Y0090515D01*
X0015973Y0092113D02*
X0015973Y0092113D01*
X0015973Y0093712D02*
X0015973Y0093712D01*
X0011452Y0093712D02*
X0008741Y0093712D01*
X0008331Y0095310D02*
X0031099Y0095310D01*
X0031099Y0095301D02*
X0031554Y0094204D01*
X0032393Y0093365D01*
X0033490Y0092910D01*
X0034677Y0092910D01*
X0035774Y0093365D01*
X0036104Y0093694D01*
X0062554Y0093694D01*
X0063843Y0094983D01*
X0064630Y0095771D01*
X0064630Y0098992D01*
X0064960Y0099322D01*
X0065414Y0100419D01*
X0065414Y0101606D01*
X0064960Y0102703D01*
X0064120Y0103543D01*
X0063024Y0103997D01*
X0061836Y0103997D01*
X0060739Y0103543D01*
X0059900Y0102703D01*
X0059446Y0101606D01*
X0059446Y0100419D01*
X0059900Y0099322D01*
X0060230Y0098992D01*
X0060230Y0098094D01*
X0036104Y0098094D01*
X0035774Y0098424D01*
X0034677Y0098879D01*
X0033490Y0098879D01*
X0032393Y0098424D01*
X0031554Y0097585D01*
X0031099Y0096488D01*
X0031099Y0095301D01*
X0032046Y0093712D02*
X0028426Y0093712D01*
X0029645Y0092113D02*
X0039396Y0092113D01*
X0037797Y0090515D02*
X0030016Y0090515D01*
X0029754Y0088916D02*
X0036608Y0088916D01*
X0036608Y0087318D02*
X0028691Y0087318D01*
X0027413Y0085719D02*
X0036092Y0085719D01*
X0035824Y0084121D02*
X0026044Y0084121D01*
X0025325Y0082522D02*
X0036542Y0082522D01*
X0038808Y0084477D02*
X0038808Y0088414D01*
X0040383Y0089989D01*
X0067942Y0089989D01*
X0069910Y0088020D01*
X0069910Y0055343D01*
X0071879Y0053375D01*
X0071879Y0052981D01*
X0073670Y0050552D02*
X0074797Y0050552D01*
X0074765Y0052151D02*
X0074797Y0052151D01*
X0076997Y0054556D02*
X0073060Y0058493D01*
X0073060Y0080146D01*
X0077391Y0084477D01*
X0100422Y0084477D01*
X0101406Y0084280D01*
X0101406Y0074241D01*
X0099206Y0076128D02*
X0098023Y0076128D01*
X0099206Y0077727D02*
X0086415Y0077727D01*
X0086509Y0079325D02*
X0092964Y0079325D01*
X0092526Y0080924D02*
X0086509Y0080924D01*
X0082509Y0079477D02*
X0078296Y0079477D01*
X0077702Y0081677D02*
X0078302Y0082277D01*
X0079652Y0082277D01*
X0079052Y0081677D01*
X0077702Y0081677D01*
X0073923Y0084121D02*
X0072110Y0084121D01*
X0072110Y0085719D02*
X0075521Y0085719D01*
X0076950Y0087318D02*
X0072110Y0087318D01*
X0072110Y0088916D02*
X0075352Y0088916D01*
X0073753Y0090515D02*
X0070527Y0090515D01*
X0068929Y0092113D02*
X0072828Y0092113D01*
X0072828Y0093712D02*
X0062571Y0093712D01*
X0064170Y0095310D02*
X0072828Y0095310D01*
X0072828Y0096909D02*
X0064630Y0096909D01*
X0064630Y0098507D02*
X0072828Y0098507D01*
X0072828Y0100106D02*
X0065284Y0100106D01*
X0065373Y0101704D02*
X0072828Y0101704D01*
X0072828Y0103303D02*
X0064360Y0103303D01*
X0066060Y0104901D02*
X0031946Y0104901D01*
X0031785Y0103303D02*
X0060500Y0103303D01*
X0059486Y0101704D02*
X0031123Y0101704D01*
X0029935Y0100106D02*
X0059575Y0100106D01*
X0060230Y0098507D02*
X0035574Y0098507D01*
X0034083Y0095894D02*
X0061643Y0095894D01*
X0062430Y0096682D01*
X0062430Y0101013D01*
X0064461Y0106500D02*
X0031946Y0106500D01*
X0031326Y0108098D02*
X0064167Y0108098D01*
X0064167Y0109697D02*
X0030425Y0109697D01*
X0028826Y0111296D02*
X0063444Y0111296D01*
X0063492Y0112894D02*
X0018291Y0112894D01*
X0018564Y0111296D02*
X0020443Y0111296D01*
X0018845Y0109697D02*
X0017854Y0109697D01*
X0017780Y0108098D02*
X0017943Y0108098D01*
X0015580Y0111643D02*
X0015580Y0104162D01*
X0014005Y0102587D01*
X0008887Y0102587D01*
X0006131Y0099831D01*
X0006131Y0090383D01*
X0009006Y0087318D02*
X0011381Y0087318D01*
X0011373Y0088916D02*
X0010069Y0088916D01*
X0010331Y0090515D02*
X0011373Y0090515D01*
X0011373Y0092113D02*
X0009960Y0092113D01*
X0008331Y0096909D02*
X0031274Y0096909D01*
X0032593Y0098507D02*
X0027713Y0098507D01*
X0025816Y0090383D02*
X0025816Y0087233D01*
X0023060Y0084477D01*
X0038186Y0068136D02*
X0038640Y0067039D01*
X0039480Y0066199D01*
X0046682Y0064398D02*
X0047469Y0063611D01*
X0047469Y0051406D01*
X0049595Y0049280D01*
X0049595Y0043532D01*
X0047095Y0039152D02*
X0046982Y0039039D01*
X0047208Y0039039D01*
X0047095Y0039152D01*
X0047095Y0047912D02*
X0046795Y0048212D01*
X0046795Y0048969D01*
X0047395Y0048369D01*
X0047395Y0048212D01*
X0047095Y0047912D01*
X0046811Y0048954D02*
X0046795Y0048954D01*
X0051795Y0048693D02*
X0051795Y0048212D01*
X0052095Y0047912D01*
X0052336Y0048153D01*
X0051795Y0048693D01*
X0056795Y0048418D02*
X0057198Y0048015D01*
X0057095Y0047912D01*
X0056795Y0048212D01*
X0056795Y0048418D01*
X0064398Y0043335D02*
X0064595Y0043532D01*
X0069595Y0045757D02*
X0069595Y0045757D01*
X0069595Y0047355D02*
X0069595Y0047355D01*
X0072399Y0055965D02*
X0072110Y0056255D01*
X0072110Y0056331D01*
X0072479Y0055963D01*
X0072472Y0055965D01*
X0072399Y0055965D01*
X0078803Y0061742D02*
X0080376Y0061742D01*
X0092351Y0059477D02*
X0092351Y0049044D01*
X0092351Y0047469D01*
X0089202Y0044320D01*
X0091402Y0042560D02*
X0114432Y0042560D01*
X0114432Y0044158D02*
X0092151Y0044158D01*
X0091402Y0040961D02*
X0114432Y0040961D01*
X0114432Y0039363D02*
X0091402Y0039363D01*
X0091402Y0037764D02*
X0114432Y0037764D01*
X0114432Y0036165D02*
X0091402Y0036165D01*
X0091402Y0034567D02*
X0114432Y0034567D01*
X0114432Y0032968D02*
X0091402Y0032968D01*
X0091402Y0031370D02*
X0114432Y0031370D01*
X0114432Y0029771D02*
X0091402Y0029771D01*
X0091402Y0028173D02*
X0114432Y0028173D01*
X0114432Y0026574D02*
X0091402Y0026574D01*
X0091402Y0024976D02*
X0114432Y0024976D01*
X0114432Y0023377D02*
X0090662Y0023377D01*
X0089063Y0021779D02*
X0114432Y0021779D01*
X0114432Y0020180D02*
X0081165Y0020180D01*
X0081165Y0018582D02*
X0089147Y0018582D01*
X0089390Y0018825D02*
X0087334Y0016769D01*
X0086220Y0014081D01*
X0086220Y0011172D01*
X0087334Y0008485D01*
X0089390Y0006428D01*
X0092078Y0005315D01*
X0094987Y0005315D01*
X0097674Y0006428D01*
X0099731Y0008485D01*
X0100844Y0011172D01*
X0100844Y0014081D01*
X0099731Y0016769D01*
X0097674Y0018825D01*
X0094987Y0019939D01*
X0092078Y0019939D01*
X0089390Y0018825D01*
X0087548Y0016983D02*
X0081165Y0016983D01*
X0081165Y0015385D02*
X0086760Y0015385D01*
X0086220Y0013786D02*
X0081165Y0013786D01*
X0081165Y0012188D02*
X0086220Y0012188D01*
X0086462Y0010589D02*
X0081165Y0010589D01*
X0081165Y0008991D02*
X0087124Y0008991D01*
X0088426Y0007392D02*
X0081165Y0007392D01*
X0080165Y0005794D02*
X0090922Y0005794D01*
X0096143Y0005794D02*
X0114432Y0005794D01*
X0113753Y0004195D02*
X0078566Y0004195D01*
X0076479Y0008331D02*
X0076009Y0008331D01*
X0076765Y0009087D01*
X0076765Y0008617D01*
X0076479Y0008331D01*
X0076669Y0008991D02*
X0076765Y0008991D01*
X0085851Y0026047D02*
X0086283Y0026479D01*
X0087002Y0027197D01*
X0087002Y0026047D01*
X0085851Y0026047D01*
X0086379Y0026574D02*
X0087002Y0026574D01*
X0083353Y0029771D02*
X0070359Y0029771D01*
X0068862Y0031370D02*
X0083458Y0031370D01*
X0083458Y0032968D02*
X0058782Y0032968D01*
X0059118Y0031370D02*
X0060574Y0031370D01*
X0060441Y0034567D02*
X0083458Y0034567D01*
X0083458Y0036165D02*
X0064080Y0036165D01*
X0054718Y0029771D02*
X0054368Y0029771D01*
X0054158Y0031370D02*
X0052770Y0031370D01*
X0036595Y0045757D02*
X0033961Y0045757D01*
X0034798Y0047355D02*
X0036595Y0047355D01*
X0034798Y0048954D02*
X0040905Y0048954D01*
X0048419Y0065773D02*
X0048104Y0066088D01*
X0048372Y0066199D01*
X0048419Y0066246D01*
X0048419Y0065773D01*
X0051962Y0069710D02*
X0050743Y0070929D01*
X0048702Y0070929D01*
X0048372Y0071259D01*
X0048302Y0071288D01*
X0048372Y0071317D01*
X0048702Y0071647D01*
X0051962Y0071647D01*
X0051962Y0069710D01*
X0051962Y0069734D02*
X0051938Y0069734D01*
X0051962Y0071333D02*
X0048388Y0071333D01*
X0054355Y0075584D02*
X0054432Y0075584D01*
X0054721Y0075295D01*
X0054721Y0075222D01*
X0054724Y0075216D01*
X0054355Y0075584D01*
X0041792Y0084121D02*
X0067710Y0084121D01*
X0067710Y0085719D02*
X0041523Y0085719D01*
X0041008Y0087318D02*
X0067502Y0087318D01*
X0067710Y0082522D02*
X0041073Y0082522D01*
X0066367Y0107706D02*
X0066367Y0112036D01*
X0068489Y0114135D02*
X0089825Y0114135D01*
X0089825Y0100985D01*
X0091158Y0096884D01*
X0093693Y0093395D01*
X0097181Y0090861D01*
X0097181Y0090861D01*
X0101008Y0089617D01*
X0093346Y0089617D01*
X0092526Y0088797D01*
X0092526Y0086677D01*
X0085365Y0086677D01*
X0086509Y0087820D01*
X0086509Y0091134D01*
X0084166Y0093477D01*
X0080852Y0093477D01*
X0079052Y0091677D01*
X0078814Y0091677D01*
X0077228Y0093262D01*
X0077228Y0105467D01*
X0075654Y0107042D01*
X0074365Y0108331D01*
X0068853Y0108331D01*
X0068567Y0108617D01*
X0068567Y0110016D01*
X0068897Y0110346D01*
X0069351Y0111443D01*
X0069351Y0112630D01*
X0068897Y0113727D01*
X0068489Y0114135D01*
X0069242Y0112894D02*
X0089825Y0112894D01*
X0089825Y0111296D02*
X0069290Y0111296D01*
X0068567Y0109697D02*
X0089825Y0109697D01*
X0089825Y0108098D02*
X0074597Y0108098D01*
X0076196Y0106500D02*
X0089825Y0106500D01*
X0089825Y0104901D02*
X0077228Y0104901D01*
X0077228Y0103303D02*
X0089825Y0103303D01*
X0089825Y0101704D02*
X0077228Y0101704D01*
X0077228Y0100106D02*
X0090111Y0100106D01*
X0090631Y0098507D02*
X0077228Y0098507D01*
X0077228Y0096909D02*
X0091150Y0096909D01*
X0092301Y0095310D02*
X0077228Y0095310D01*
X0077228Y0093712D02*
X0093463Y0093712D01*
X0093693Y0093395D02*
X0093693Y0093395D01*
X0095457Y0092113D02*
X0085529Y0092113D01*
X0086509Y0090515D02*
X0098246Y0090515D01*
X0092645Y0088916D02*
X0086509Y0088916D01*
X0086006Y0087318D02*
X0092526Y0087318D01*
X0082509Y0089477D02*
X0077902Y0089477D01*
X0075028Y0092351D01*
X0075028Y0104556D01*
X0073454Y0106131D01*
X0067942Y0106131D01*
X0066367Y0107706D01*
X0078377Y0092113D02*
X0079488Y0092113D01*
X0072324Y0082522D02*
X0072110Y0082522D01*
X0084817Y0076128D02*
X0095341Y0076128D01*
X0096704Y0063340D02*
X0097054Y0063340D01*
X0097054Y0061742D02*
X0096704Y0061742D01*
X0096704Y0060143D02*
X0097054Y0060143D01*
X0097054Y0058545D02*
X0096704Y0058545D01*
X0096704Y0056946D02*
X0097054Y0056946D01*
X0097054Y0055348D02*
X0096704Y0055348D01*
X0113685Y0053749D02*
X0114432Y0053749D01*
X0114432Y0079325D02*
X0109848Y0079325D01*
X0110287Y0080924D02*
X0114432Y0080924D01*
X0114432Y0082522D02*
X0110287Y0082522D01*
X0110287Y0084121D02*
X0114432Y0084121D01*
X0114432Y0085719D02*
X0110287Y0085719D01*
X0110287Y0087318D02*
X0114432Y0087318D01*
X0114432Y0088916D02*
X0110167Y0088916D01*
X0114432Y0018582D02*
X0097918Y0018582D01*
X0099516Y0016983D02*
X0114432Y0016983D01*
X0114432Y0015385D02*
X0100304Y0015385D01*
X0100844Y0013786D02*
X0114432Y0013786D01*
X0114432Y0012188D02*
X0100844Y0012188D01*
X0100603Y0010589D02*
X0114432Y0010589D01*
X0114432Y0008991D02*
X0099940Y0008991D01*
X0098638Y0007392D02*
X0114432Y0007392D01*
X0024635Y0029753D02*
X0023847Y0028965D01*
X0011249Y0028965D01*
X0009674Y0030540D01*
X0009674Y0038682D01*
X0009698Y0038706D01*
X0009498Y0037764D02*
X0009898Y0037764D01*
X0009898Y0036165D02*
X0009498Y0036165D01*
X0009498Y0034567D02*
X0009898Y0034567D01*
X0011808Y0032968D02*
X0003862Y0032968D01*
X0003862Y0031370D02*
X0012197Y0031370D01*
X0014792Y0032902D02*
X0018729Y0032902D01*
X0019698Y0033871D01*
X0019698Y0038706D01*
X0015304Y0035887D02*
X0014657Y0035887D01*
X0014980Y0036210D01*
X0015304Y0035887D01*
X0015025Y0036165D02*
X0014936Y0036165D01*
X0006058Y0034567D02*
X0003862Y0034567D01*
X0003862Y0036165D02*
X0004459Y0036165D01*
X0004198Y0037764D02*
X0003862Y0037764D01*
X0003862Y0039363D02*
X0004198Y0039363D01*
X0004198Y0040961D02*
X0003862Y0040961D01*
X0003862Y0042560D02*
X0005773Y0042560D01*
X0007033Y0044158D02*
X0003862Y0044158D01*
X0003862Y0045757D02*
X0005434Y0045757D01*
X0004598Y0047355D02*
X0003862Y0047355D01*
X0003862Y0048954D02*
X0004598Y0048954D01*
X0004598Y0050552D02*
X0003862Y0050552D01*
X0003862Y0052151D02*
X0005930Y0052151D01*
X0007498Y0053749D02*
X0003862Y0053749D01*
X0003862Y0055348D02*
X0007498Y0055348D01*
X0007498Y0056946D02*
X0003862Y0056946D01*
X0003862Y0058545D02*
X0007498Y0058545D01*
X0007498Y0060143D02*
X0003862Y0060143D01*
X0003862Y0061742D02*
X0007498Y0061742D01*
X0007498Y0063340D02*
X0003862Y0063340D01*
X0003862Y0093989D02*
X0003862Y0111999D01*
X0003903Y0112416D01*
X0004222Y0113186D01*
X0004811Y0113775D01*
X0005581Y0114094D01*
X0005998Y0114135D01*
X0013851Y0114135D01*
X0013050Y0113333D01*
X0012595Y0112236D01*
X0012595Y0111049D01*
X0013050Y0109952D01*
X0013380Y0109622D01*
X0013380Y0105073D01*
X0013093Y0104787D01*
X0007975Y0104787D01*
X0006687Y0103499D01*
X0003931Y0100743D01*
X0003931Y0094017D01*
X0003862Y0093989D01*
X0003862Y0095310D02*
X0003931Y0095310D01*
X0003931Y0096909D02*
X0003862Y0096909D01*
X0003862Y0098507D02*
X0003931Y0098507D01*
X0003931Y0100106D02*
X0003862Y0100106D01*
X0003862Y0101704D02*
X0004892Y0101704D01*
X0003862Y0103303D02*
X0006491Y0103303D01*
X0003862Y0104901D02*
X0013208Y0104901D01*
X0013380Y0106500D02*
X0003862Y0106500D01*
X0003862Y0108098D02*
X0013380Y0108098D01*
X0013305Y0109697D02*
X0003862Y0109697D01*
X0003862Y0111296D02*
X0012595Y0111296D01*
X0012868Y0112894D02*
X0004101Y0112894D01*
D20*
X0064718Y0033616D02*
X0064718Y0021091D01*
X0049118Y0021091D02*
X0044787Y0025422D01*
X0039989Y0025422D01*
M02*
