%
M48
M72
T01C0.01969
T02C0.02756
T03C0.03200
T04C0.04000
T05C0.06600
T06C0.11024
%
T01
X24635Y29753
X14792Y32902
X24635Y56918
X32115Y56918
X41170Y68729
X46682Y68729
X46682Y73847
X57706Y75816
X57706Y83690
X62430Y101013
X66367Y112036
X38808Y84477
X34083Y95894
X23060Y84477
X15580Y98257
X15580Y111643
X71879Y52981
X85658Y52194
X92351Y49044
X110855Y45107
X96682Y73454
X58493Y36839
X64792Y33690
X39989Y25422
X39989Y14005
T02
X25816Y90383
X15973Y90383
X6131Y90383
T03
X82509Y89477
X82509Y79477
X82509Y68217
X82509Y58217
T04
X29698Y48706
X19698Y48706
X9698Y48706
X9698Y38706
X19698Y38706
X29698Y38706
T05
X49118Y21091
X64718Y21091
T06
X93532Y12627
X24635Y105146
M30
